<svg width="1363" height="163" viewBox="0 0 1363 163" fill="none" xmlns="http://www.w3.org/2000/svg">
<path d="M0 15C0 6.71573 6.71573 0 15 0H37V163H15C6.71573 163 0 156.284 0 148V15Z" fill="#424242"/>
<rect width="1097" height="163" transform="translate(37)" fill="#F0F0F0"/>
<path d="M101.906 53.9219L94.3945 51.2383V48.0859L104.602 52.375V54.6367L101.906 53.9219ZM94.3945 56.1719L101.918 53.4297L104.602 52.7852V55.0352L94.3945 59.3242V56.1719ZM117.012 58.293L120.41 43.9375H122.309L122.742 46.3281L119.121 61H117.082L117.012 58.293ZM115.266 43.9375L118.078 58.293L117.844 61H115.57L111.785 43.9375H115.266ZM125.73 58.2344L128.508 43.9375H131.988L128.215 61H125.941L125.73 58.2344ZM123.375 43.9375L126.797 58.3516L126.703 61H124.664L121.02 46.3164L121.488 43.9375H123.375ZM139.148 61.2344C138.164 61.2344 137.281 61.0781 136.5 60.7656C135.719 60.4453 135.055 60.0039 134.508 59.4414C133.969 58.8789 133.555 58.2266 133.266 57.4844C132.977 56.7344 132.832 55.9375 132.832 55.0938V54.625C132.832 53.6641 132.969 52.7852 133.242 51.9883C133.516 51.1914 133.906 50.5 134.414 49.9141C134.93 49.3281 135.555 48.8789 136.289 48.5664C137.023 48.2461 137.852 48.0859 138.773 48.0859C139.672 48.0859 140.469 48.2344 141.164 48.5312C141.859 48.8281 142.441 49.25 142.91 49.7969C143.387 50.3438 143.746 51 143.988 51.7656C144.23 52.5234 144.352 53.3672 144.352 54.2969V55.7031H134.273V53.4531H141.035V53.1953C141.035 52.7266 140.949 52.3086 140.777 51.9414C140.613 51.5664 140.363 51.2695 140.027 51.0508C139.691 50.832 139.262 50.7227 138.738 50.7227C138.293 50.7227 137.91 50.8203 137.59 51.0156C137.27 51.2109 137.008 51.4844 136.805 51.8359C136.609 52.1875 136.461 52.6016 136.359 53.0781C136.266 53.5469 136.219 54.0625 136.219 54.625V55.0938C136.219 55.6016 136.289 56.0703 136.43 56.5C136.578 56.9297 136.785 57.3008 137.051 57.6133C137.324 57.9258 137.652 58.168 138.035 58.3398C138.426 58.5117 138.867 58.5977 139.359 58.5977C139.969 58.5977 140.535 58.4805 141.059 58.2461C141.59 58.0039 142.047 57.6406 142.43 57.1562L144.07 58.9375C143.805 59.3203 143.441 59.6875 142.98 60.0391C142.527 60.3906 141.98 60.6797 141.34 60.9062C140.699 61.125 139.969 61.2344 139.148 61.2344ZM146.273 43H149.648V58.0938L149.309 61H146.273V43ZM157.676 54.5312V54.7773C157.676 55.7227 157.574 56.5898 157.371 57.3789C157.176 58.168 156.871 58.8516 156.457 59.4297C156.043 60 155.527 60.4453 154.91 60.7656C154.301 61.0781 153.582 61.2344 152.754 61.2344C151.98 61.2344 151.309 61.0781 150.738 60.7656C150.176 60.4531 149.703 60.0117 149.32 59.4414C148.938 58.8711 148.629 58.2031 148.395 57.4375C148.16 56.6719 147.984 55.8359 147.867 54.9297V54.3906C147.984 53.4844 148.16 52.6484 148.395 51.8828C148.629 51.1172 148.938 50.4492 149.32 49.8789C149.703 49.3086 150.176 48.8672 150.738 48.5547C151.301 48.2422 151.965 48.0859 152.73 48.0859C153.566 48.0859 154.293 48.2461 154.91 48.5664C155.535 48.8789 156.051 49.3242 156.457 49.9023C156.871 50.4727 157.176 51.1523 157.371 51.9414C157.574 52.7227 157.676 53.5859 157.676 54.5312ZM154.301 54.7773V54.5312C154.301 54.0156 154.262 53.5312 154.184 53.0781C154.113 52.6172 153.988 52.2148 153.809 51.8711C153.629 51.5195 153.383 51.2422 153.07 51.0391C152.766 50.8359 152.371 50.7344 151.887 50.7344C151.426 50.7344 151.035 50.8125 150.715 50.9688C150.395 51.125 150.129 51.3438 149.918 51.625C149.715 51.9062 149.562 52.2422 149.461 52.6328C149.359 53.0156 149.297 53.4375 149.273 53.8984V55.4336C149.297 56.0508 149.398 56.5977 149.578 57.0742C149.766 57.543 150.047 57.9141 150.422 58.1875C150.805 58.4531 151.301 58.5859 151.91 58.5859C152.387 58.5859 152.781 58.4922 153.094 58.3047C153.406 58.1172 153.648 57.8516 153.82 57.5078C154 57.1641 154.125 56.7617 154.195 56.3008C154.266 55.832 154.301 55.3242 154.301 54.7773ZM167.566 43.9375H170.543L174.926 56.4648L179.309 43.9375H182.285L176.121 61H173.73L167.566 43.9375ZM165.961 43.9375H168.926L169.465 56.1484V61H165.961V43.9375ZM180.926 43.9375H183.902V61H180.387V56.1484L180.926 43.9375ZM193.617 58.1406V52.4922C193.617 52.0859 193.551 51.7383 193.418 51.4492C193.285 51.1523 193.078 50.9219 192.797 50.7578C192.523 50.5938 192.168 50.5117 191.73 50.5117C191.355 50.5117 191.031 50.5781 190.758 50.7109C190.484 50.8359 190.273 51.0195 190.125 51.2617C189.977 51.4961 189.902 51.7734 189.902 52.0938H186.527C186.527 51.5547 186.652 51.043 186.902 50.5586C187.152 50.0742 187.516 49.6484 187.992 49.2812C188.469 48.9062 189.035 48.6133 189.691 48.4023C190.355 48.1914 191.098 48.0859 191.918 48.0859C192.902 48.0859 193.777 48.25 194.543 48.5781C195.309 48.9062 195.91 49.3984 196.348 50.0547C196.793 50.7109 197.016 51.5312 197.016 52.5156V57.9414C197.016 58.6367 197.059 59.207 197.145 59.6523C197.23 60.0898 197.355 60.4727 197.52 60.8008V61H194.109C193.945 60.6562 193.82 60.2266 193.734 59.7109C193.656 59.1875 193.617 58.6641 193.617 58.1406ZM194.062 53.2773L194.086 55.1875H192.199C191.754 55.1875 191.367 55.2383 191.039 55.3398C190.711 55.4414 190.441 55.5859 190.23 55.7734C190.02 55.9531 189.863 56.1641 189.762 56.4062C189.668 56.6484 189.621 56.9141 189.621 57.2031C189.621 57.4922 189.688 57.7539 189.82 57.9883C189.953 58.2148 190.145 58.3945 190.395 58.5273C190.645 58.6523 190.938 58.7148 191.273 58.7148C191.781 58.7148 192.223 58.6133 192.598 58.4102C192.973 58.207 193.262 57.957 193.465 57.6602C193.676 57.3633 193.785 57.082 193.793 56.8164L194.684 58.2461C194.559 58.5664 194.387 58.8984 194.168 59.2422C193.957 59.5859 193.688 59.9102 193.359 60.2148C193.031 60.5117 192.637 60.7578 192.176 60.9531C191.715 61.1406 191.168 61.2344 190.535 61.2344C189.73 61.2344 189 61.0742 188.344 60.7539C187.695 60.4258 187.18 59.9766 186.797 59.4062C186.422 58.8281 186.234 58.1719 186.234 57.4375C186.234 56.7734 186.359 56.1836 186.609 55.668C186.859 55.1523 187.227 54.7188 187.711 54.3672C188.203 54.0078 188.816 53.7383 189.551 53.5586C190.285 53.3711 191.137 53.2773 192.105 53.2773H194.062ZM202.992 42.9883V61H199.617V42.9883H202.992ZM210.984 48.3203L205.477 54.6016L202.523 57.5898L201.293 55.1523L203.637 52.1758L206.93 48.3203H210.984ZM207.48 61L203.73 55.1406L206.062 53.1016L211.371 61H207.48ZM218.039 61.2344C217.055 61.2344 216.172 61.0781 215.391 60.7656C214.609 60.4453 213.945 60.0039 213.398 59.4414C212.859 58.8789 212.445 58.2266 212.156 57.4844C211.867 56.7344 211.723 55.9375 211.723 55.0938V54.625C211.723 53.6641 211.859 52.7852 212.133 51.9883C212.406 51.1914 212.797 50.5 213.305 49.9141C213.82 49.3281 214.445 48.8789 215.18 48.5664C215.914 48.2461 216.742 48.0859 217.664 48.0859C218.562 48.0859 219.359 48.2344 220.055 48.5312C220.75 48.8281 221.332 49.25 221.801 49.7969C222.277 50.3438 222.637 51 222.879 51.7656C223.121 52.5234 223.242 53.3672 223.242 54.2969V55.7031H213.164V53.4531H219.926V53.1953C219.926 52.7266 219.84 52.3086 219.668 51.9414C219.504 51.5664 219.254 51.2695 218.918 51.0508C218.582 50.832 218.152 50.7227 217.629 50.7227C217.184 50.7227 216.801 50.8203 216.48 51.0156C216.16 51.2109 215.898 51.4844 215.695 51.8359C215.5 52.1875 215.352 52.6016 215.25 53.0781C215.156 53.5469 215.109 54.0625 215.109 54.625V55.0938C215.109 55.6016 215.18 56.0703 215.32 56.5C215.469 56.9297 215.676 57.3008 215.941 57.6133C216.215 57.9258 216.543 58.168 216.926 58.3398C217.316 58.5117 217.758 58.5977 218.25 58.5977C218.859 58.5977 219.426 58.4805 219.949 58.2461C220.48 58.0039 220.938 57.6406 221.32 57.1562L222.961 58.9375C222.695 59.3203 222.332 59.6875 221.871 60.0391C221.418 60.3906 220.871 60.6797 220.23 60.9062C219.59 61.125 218.859 61.2344 218.039 61.2344ZM228.539 51.0859V61H225.164V48.3203H228.34L228.539 51.0859ZM232.359 48.2383L232.301 51.3672C232.137 51.3438 231.938 51.3242 231.703 51.3086C231.477 51.2852 231.27 51.2734 231.082 51.2734C230.605 51.2734 230.191 51.3359 229.84 51.4609C229.496 51.5781 229.207 51.7539 228.973 51.9883C228.746 52.2227 228.574 52.5078 228.457 52.8438C228.348 53.1797 228.285 53.5625 228.27 53.9922L227.59 53.7812C227.59 52.9609 227.672 52.207 227.836 51.5195C228 50.8242 228.238 50.2188 228.551 49.7031C228.871 49.1875 229.262 48.7891 229.723 48.5078C230.184 48.2266 230.711 48.0859 231.305 48.0859C231.492 48.0859 231.684 48.1016 231.879 48.1328C232.074 48.1562 232.234 48.1914 232.359 48.2383Z" fill="#888888"/>
<path d="M118.594 98.4219V104.75H101.086V98.4219H118.594ZM103.828 84.875V119H95.6016V84.875H103.828ZM124.125 84.875V119H115.922V84.875H124.125ZM127.992 106.578V106.086C127.992 104.227 128.258 102.516 128.789 100.953C129.32 99.375 130.102 98.0078 131.133 96.8516C132.164 95.6953 133.438 94.7969 134.953 94.1562C136.469 93.5 138.219 93.1719 140.203 93.1719C142.203 93.1719 143.961 93.5 145.477 94.1562C147.008 94.7969 148.289 95.6953 149.32 96.8516C150.352 98.0078 151.133 99.375 151.664 100.953C152.195 102.516 152.461 104.227 152.461 106.086V106.578C152.461 108.422 152.195 110.133 151.664 111.711C151.133 113.273 150.352 114.641 149.32 115.812C148.289 116.969 147.016 117.867 145.5 118.508C143.984 119.148 142.234 119.469 140.25 119.469C138.266 119.469 136.508 119.148 134.977 118.508C133.445 117.867 132.164 116.969 131.133 115.812C130.102 114.641 129.32 113.273 128.789 111.711C128.258 110.133 127.992 108.422 127.992 106.578ZM135.891 106.086V106.578C135.891 107.531 135.961 108.422 136.102 109.25C136.242 110.078 136.477 110.805 136.805 111.43C137.133 112.039 137.578 112.516 138.141 112.859C138.703 113.203 139.406 113.375 140.25 113.375C141.078 113.375 141.766 113.203 142.312 112.859C142.875 112.516 143.32 112.039 143.648 111.43C143.977 110.805 144.211 110.078 144.352 109.25C144.492 108.422 144.562 107.531 144.562 106.578V106.086C144.562 105.164 144.492 104.297 144.352 103.484C144.211 102.656 143.977 101.93 143.648 101.305C143.32 100.664 142.875 100.164 142.312 99.8047C141.75 99.4453 141.047 99.2656 140.203 99.2656C139.375 99.2656 138.68 99.4453 138.117 99.8047C137.57 100.164 137.133 100.664 136.805 101.305C136.477 101.93 136.242 102.656 136.102 103.484C135.961 104.297 135.891 105.164 135.891 106.086ZM163.688 111.453L168.375 93.6406H173.32L171.562 102.57L166.922 119H162.961L163.688 111.453ZM161.836 93.6406L164.742 111.312L165.07 119H160.266L154.266 93.6406H161.836ZM177.492 110.938L180.422 93.6406H187.992L182.039 119H177.234L177.492 110.938ZM173.883 93.6406L178.617 111.406L179.344 119H175.336L170.789 102.617L169.102 93.6406H173.883ZM218.297 84.875V119H210.07V84.875H218.297ZM228.562 84.875V91.2266H200.039V84.875H228.562ZM225.773 106.578V106.086C225.773 104.227 226.039 102.516 226.57 100.953C227.102 99.375 227.883 98.0078 228.914 96.8516C229.945 95.6953 231.219 94.7969 232.734 94.1562C234.25 93.5 236 93.1719 237.984 93.1719C239.984 93.1719 241.742 93.5 243.258 94.1562C244.789 94.7969 246.07 95.6953 247.102 96.8516C248.133 98.0078 248.914 99.375 249.445 100.953C249.977 102.516 250.242 104.227 250.242 106.086V106.578C250.242 108.422 249.977 110.133 249.445 111.711C248.914 113.273 248.133 114.641 247.102 115.812C246.07 116.969 244.797 117.867 243.281 118.508C241.766 119.148 240.016 119.469 238.031 119.469C236.047 119.469 234.289 119.148 232.758 118.508C231.227 117.867 229.945 116.969 228.914 115.812C227.883 114.641 227.102 113.273 226.57 111.711C226.039 110.133 225.773 108.422 225.773 106.578ZM233.672 106.086V106.578C233.672 107.531 233.742 108.422 233.883 109.25C234.023 110.078 234.258 110.805 234.586 111.43C234.914 112.039 235.359 112.516 235.922 112.859C236.484 113.203 237.188 113.375 238.031 113.375C238.859 113.375 239.547 113.203 240.094 112.859C240.656 112.516 241.102 112.039 241.43 111.43C241.758 110.805 241.992 110.078 242.133 109.25C242.273 108.422 242.344 107.531 242.344 106.578V106.086C242.344 105.164 242.273 104.297 242.133 103.484C241.992 102.656 241.758 101.93 241.43 101.305C241.102 100.664 240.656 100.164 240.094 99.8047C239.531 99.4453 238.828 99.2656 237.984 99.2656C237.156 99.2656 236.461 99.4453 235.898 99.8047C235.352 100.164 234.914 100.664 234.586 101.305C234.258 101.93 234.023 102.656 233.883 103.484C233.742 104.297 233.672 105.164 233.672 106.086ZM266.086 84.875H279.516C282.141 84.875 284.422 85.2656 286.359 86.0469C288.297 86.8281 289.789 87.9844 290.836 89.5156C291.898 91.0469 292.43 92.9375 292.43 95.1875C292.43 97.1406 292.125 98.7734 291.516 100.086C290.906 101.398 290.055 102.484 288.961 103.344C287.883 104.188 286.625 104.883 285.188 105.43L282.492 106.953H271.219L271.172 100.602H279.516C280.562 100.602 281.43 100.414 282.117 100.039C282.805 99.6641 283.32 99.1328 283.664 98.4453C284.023 97.7422 284.203 96.9062 284.203 95.9375C284.203 94.9531 284.023 94.1094 283.664 93.4062C283.305 92.7031 282.773 92.1641 282.07 91.7891C281.383 91.4141 280.531 91.2266 279.516 91.2266H274.312V119H266.086V84.875ZM284.766 119L277.219 103.906L285.938 103.859L293.578 118.648V119H284.766ZM311.836 112.836V93.6406H319.758V119H312.352L311.836 112.836ZM312.586 107.68L314.648 107.633C314.648 109.336 314.445 110.914 314.039 112.367C313.633 113.805 313.031 115.055 312.234 116.117C311.453 117.18 310.484 118.008 309.328 118.602C308.188 119.18 306.867 119.469 305.367 119.469C304.117 119.469 302.969 119.297 301.922 118.953C300.891 118.594 300 118.039 299.25 117.289C298.5 116.523 297.914 115.547 297.492 114.359C297.086 113.156 296.883 111.719 296.883 110.047V93.6406H304.781V110.094C304.781 110.656 304.852 111.141 304.992 111.547C305.133 111.953 305.336 112.297 305.602 112.578C305.867 112.844 306.195 113.047 306.586 113.188C306.992 113.312 307.453 113.375 307.969 113.375C309.156 113.375 310.086 113.125 310.758 112.625C311.43 112.125 311.898 111.445 312.164 110.586C312.445 109.727 312.586 108.758 312.586 107.68ZM331.875 99.0547V119H323.977V93.6406H331.383L331.875 99.0547ZM330.938 105.453L329.086 105.5C329.086 103.562 329.32 101.836 329.789 100.32C330.258 98.7891 330.922 97.4922 331.781 96.4297C332.641 95.3672 333.664 94.5625 334.852 94.0156C336.055 93.4531 337.391 93.1719 338.859 93.1719C340.031 93.1719 341.102 93.3438 342.07 93.6875C343.055 94.0312 343.898 94.5859 344.602 95.3516C345.32 96.1172 345.867 97.1328 346.242 98.3984C346.633 99.6484 346.828 101.195 346.828 103.039V119H338.883V103.016C338.883 102 338.742 101.227 338.461 100.695C338.18 100.148 337.773 99.7734 337.242 99.5703C336.711 99.3672 336.062 99.2656 335.297 99.2656C334.484 99.2656 333.797 99.4219 333.234 99.7344C332.672 100.047 332.219 100.484 331.875 101.047C331.547 101.594 331.305 102.242 331.148 102.992C331.008 103.742 330.938 104.562 330.938 105.453ZM363.773 108.195H357.047C357.047 106.82 357.141 105.609 357.328 104.562C357.531 103.5 357.875 102.547 358.359 101.703C358.844 100.859 359.5 100.078 360.328 99.3594C361.062 98.75 361.695 98.1641 362.227 97.6016C362.758 97.0391 363.164 96.4688 363.445 95.8906C363.727 95.3125 363.867 94.6953 363.867 94.0391C363.867 93.2266 363.75 92.5625 363.516 92.0469C363.297 91.5312 362.961 91.1484 362.508 90.8984C362.07 90.6328 361.516 90.5 360.844 90.5C360.297 90.5 359.781 90.6328 359.297 90.8984C358.828 91.1641 358.445 91.5781 358.148 92.1406C357.852 92.6875 357.688 93.4141 357.656 94.3203H349.711C349.758 91.9922 350.273 90.1016 351.258 88.6484C352.258 87.1797 353.586 86.1094 355.242 85.4375C356.914 84.75 358.781 84.4062 360.844 84.4062C363.125 84.4062 365.086 84.7578 366.727 85.4609C368.367 86.1641 369.625 87.2109 370.5 88.6016C371.375 89.9766 371.812 91.6719 371.812 93.6875C371.812 95.0312 371.555 96.2031 371.039 97.2031C370.539 98.1875 369.859 99.1094 369 99.9688C368.156 100.812 367.211 101.719 366.164 102.688C365.258 103.484 364.641 104.297 364.312 105.125C363.984 105.938 363.805 106.961 363.773 108.195ZM356.086 115.32C356.086 114.195 356.492 113.258 357.305 112.508C358.117 111.742 359.172 111.359 360.469 111.359C361.766 111.359 362.82 111.742 363.633 112.508C364.445 113.258 364.852 114.195 364.852 115.32C364.852 116.445 364.445 117.391 363.633 118.156C362.82 118.906 361.766 119.281 360.469 119.281C359.172 119.281 358.117 118.906 357.305 118.156C356.492 117.391 356.086 116.445 356.086 115.32Z" fill="black"/>
<path d="M1134 0H1348C1356.28 0 1363 6.71573 1363 15V148C1363 156.284 1356.28 163 1348 163H1134V0Z" fill="#00204A"/>
<path d="M1260.62 78.8078C1263.81 78.8078 1266.93 79.7552 1269.59 81.5302C1272.25 83.3052 1274.32 85.8281 1275.54 88.7798C1276.76 91.7315 1277.08 94.9795 1276.46 98.1131C1275.84 101.247 1274.3 104.125 1272.04 106.384C1269.78 108.643 1266.9 110.182 1263.77 110.805C1260.63 111.428 1257.39 111.108 1254.43 109.886C1251.48 108.663 1248.96 106.593 1247.18 103.936C1245.41 101.28 1244.46 98.1565 1244.46 94.9616C1244.46 90.6774 1246.16 86.5686 1249.19 83.5392C1252.22 80.5097 1256.33 78.8078 1260.62 78.8078ZM1260.62 73.4232C1256.36 73.4232 1252.19 74.6864 1248.65 77.0531C1245.11 79.4198 1242.35 82.7836 1240.72 86.7192C1239.09 90.6549 1238.66 94.9855 1239.49 99.1636C1240.32 103.342 1242.37 107.179 1245.39 110.192C1248.4 113.204 1252.24 115.255 1256.41 116.086C1260.59 116.917 1264.92 116.491 1268.86 114.861C1272.79 113.23 1276.16 110.47 1278.52 106.928C1280.89 103.386 1282.15 99.2215 1282.15 94.9616C1282.15 89.2493 1279.88 83.7709 1275.85 79.7317C1271.81 75.6924 1266.33 73.4232 1260.62 73.4232Z" fill="white"/>
<path d="M1274.08 46.4999H1220.23C1218.8 46.4999 1217.43 47.0672 1216.42 48.0771C1215.41 49.0869 1214.85 50.4565 1214.85 51.8845V105.731C1214.85 107.159 1215.41 108.528 1216.42 109.538C1217.43 110.548 1218.8 111.115 1220.23 111.115H1231V105.731H1220.23V68.0383H1279.46V51.8845C1279.46 50.4565 1278.89 49.0869 1277.88 48.0771C1276.87 47.0672 1275.5 46.4999 1274.08 46.4999ZM1220.23 62.6537V51.8845H1274.08V62.6537H1220.23Z" fill="white"/>
<path d="M1255.23 86.8848V103.039L1268.69 94.9617L1255.23 86.8848Z" fill="white"/>
</svg>
