<svg width="1363" height="163" viewBox="0 0 1363 163" fill="none" xmlns="http://www.w3.org/2000/svg">
<path d="M0 15C0 6.71573 6.71573 0 15 0H37V163H15C6.71573 163 0 156.284 0 148V15Z" fill="#424242"/>
<rect width="1097" height="163" transform="translate(37)" fill="#F0F0F0"/>
<path d="M101.906 53.9219L94.3945 51.2383V48.0859L104.602 52.375V54.6367L101.906 53.9219ZM94.3945 56.1719L101.918 53.4297L104.602 52.7852V55.0352L94.3945 59.3242V56.1719ZM117.012 58.293L120.41 43.9375H122.309L122.742 46.3281L119.121 61H117.082L117.012 58.293ZM115.266 43.9375L118.078 58.293L117.844 61H115.57L111.785 43.9375H115.266ZM125.73 58.2344L128.508 43.9375H131.988L128.215 61H125.941L125.73 58.2344ZM123.375 43.9375L126.797 58.3516L126.703 61H124.664L121.02 46.3164L121.488 43.9375H123.375ZM139.148 61.2344C138.164 61.2344 137.281 61.0781 136.5 60.7656C135.719 60.4453 135.055 60.0039 134.508 59.4414C133.969 58.8789 133.555 58.2266 133.266 57.4844C132.977 56.7344 132.832 55.9375 132.832 55.0938V54.625C132.832 53.6641 132.969 52.7852 133.242 51.9883C133.516 51.1914 133.906 50.5 134.414 49.9141C134.93 49.3281 135.555 48.8789 136.289 48.5664C137.023 48.2461 137.852 48.0859 138.773 48.0859C139.672 48.0859 140.469 48.2344 141.164 48.5312C141.859 48.8281 142.441 49.25 142.91 49.7969C143.387 50.3438 143.746 51 143.988 51.7656C144.23 52.5234 144.352 53.3672 144.352 54.2969V55.7031H134.273V53.4531H141.035V53.1953C141.035 52.7266 140.949 52.3086 140.777 51.9414C140.613 51.5664 140.363 51.2695 140.027 51.0508C139.691 50.832 139.262 50.7227 138.738 50.7227C138.293 50.7227 137.91 50.8203 137.59 51.0156C137.27 51.2109 137.008 51.4844 136.805 51.8359C136.609 52.1875 136.461 52.6016 136.359 53.0781C136.266 53.5469 136.219 54.0625 136.219 54.625V55.0938C136.219 55.6016 136.289 56.0703 136.43 56.5C136.578 56.9297 136.785 57.3008 137.051 57.6133C137.324 57.9258 137.652 58.168 138.035 58.3398C138.426 58.5117 138.867 58.5977 139.359 58.5977C139.969 58.5977 140.535 58.4805 141.059 58.2461C141.59 58.0039 142.047 57.6406 142.43 57.1562L144.07 58.9375C143.805 59.3203 143.441 59.6875 142.98 60.0391C142.527 60.3906 141.98 60.6797 141.34 60.9062C140.699 61.125 139.969 61.2344 139.148 61.2344ZM146.273 43H149.648V58.0938L149.309 61H146.273V43ZM157.676 54.5312V54.7773C157.676 55.7227 157.574 56.5898 157.371 57.3789C157.176 58.168 156.871 58.8516 156.457 59.4297C156.043 60 155.527 60.4453 154.91 60.7656C154.301 61.0781 153.582 61.2344 152.754 61.2344C151.98 61.2344 151.309 61.0781 150.738 60.7656C150.176 60.4531 149.703 60.0117 149.32 59.4414C148.938 58.8711 148.629 58.2031 148.395 57.4375C148.16 56.6719 147.984 55.8359 147.867 54.9297V54.3906C147.984 53.4844 148.16 52.6484 148.395 51.8828C148.629 51.1172 148.938 50.4492 149.32 49.8789C149.703 49.3086 150.176 48.8672 150.738 48.5547C151.301 48.2422 151.965 48.0859 152.73 48.0859C153.566 48.0859 154.293 48.2461 154.91 48.5664C155.535 48.8789 156.051 49.3242 156.457 49.9023C156.871 50.4727 157.176 51.1523 157.371 51.9414C157.574 52.7227 157.676 53.5859 157.676 54.5312ZM154.301 54.7773V54.5312C154.301 54.0156 154.262 53.5312 154.184 53.0781C154.113 52.6172 153.988 52.2148 153.809 51.8711C153.629 51.5195 153.383 51.2422 153.07 51.0391C152.766 50.8359 152.371 50.7344 151.887 50.7344C151.426 50.7344 151.035 50.8125 150.715 50.9688C150.395 51.125 150.129 51.3438 149.918 51.625C149.715 51.9062 149.562 52.2422 149.461 52.6328C149.359 53.0156 149.297 53.4375 149.273 53.8984V55.4336C149.297 56.0508 149.398 56.5977 149.578 57.0742C149.766 57.543 150.047 57.9141 150.422 58.1875C150.805 58.4531 151.301 58.5859 151.91 58.5859C152.387 58.5859 152.781 58.4922 153.094 58.3047C153.406 58.1172 153.648 57.8516 153.82 57.5078C154 57.1641 154.125 56.7617 154.195 56.3008C154.266 55.832 154.301 55.3242 154.301 54.7773ZM167.566 43.9375H170.543L174.926 56.4648L179.309 43.9375H182.285L176.121 61H173.73L167.566 43.9375ZM165.961 43.9375H168.926L169.465 56.1484V61H165.961V43.9375ZM180.926 43.9375H183.902V61H180.387V56.1484L180.926 43.9375ZM193.617 58.1406V52.4922C193.617 52.0859 193.551 51.7383 193.418 51.4492C193.285 51.1523 193.078 50.9219 192.797 50.7578C192.523 50.5938 192.168 50.5117 191.73 50.5117C191.355 50.5117 191.031 50.5781 190.758 50.7109C190.484 50.8359 190.273 51.0195 190.125 51.2617C189.977 51.4961 189.902 51.7734 189.902 52.0938H186.527C186.527 51.5547 186.652 51.043 186.902 50.5586C187.152 50.0742 187.516 49.6484 187.992 49.2812C188.469 48.9062 189.035 48.6133 189.691 48.4023C190.355 48.1914 191.098 48.0859 191.918 48.0859C192.902 48.0859 193.777 48.25 194.543 48.5781C195.309 48.9062 195.91 49.3984 196.348 50.0547C196.793 50.7109 197.016 51.5312 197.016 52.5156V57.9414C197.016 58.6367 197.059 59.207 197.145 59.6523C197.23 60.0898 197.355 60.4727 197.52 60.8008V61H194.109C193.945 60.6562 193.82 60.2266 193.734 59.7109C193.656 59.1875 193.617 58.6641 193.617 58.1406ZM194.062 53.2773L194.086 55.1875H192.199C191.754 55.1875 191.367 55.2383 191.039 55.3398C190.711 55.4414 190.441 55.5859 190.23 55.7734C190.02 55.9531 189.863 56.1641 189.762 56.4062C189.668 56.6484 189.621 56.9141 189.621 57.2031C189.621 57.4922 189.688 57.7539 189.82 57.9883C189.953 58.2148 190.145 58.3945 190.395 58.5273C190.645 58.6523 190.938 58.7148 191.273 58.7148C191.781 58.7148 192.223 58.6133 192.598 58.4102C192.973 58.207 193.262 57.957 193.465 57.6602C193.676 57.3633 193.785 57.082 193.793 56.8164L194.684 58.2461C194.559 58.5664 194.387 58.8984 194.168 59.2422C193.957 59.5859 193.688 59.9102 193.359 60.2148C193.031 60.5117 192.637 60.7578 192.176 60.9531C191.715 61.1406 191.168 61.2344 190.535 61.2344C189.73 61.2344 189 61.0742 188.344 60.7539C187.695 60.4258 187.18 59.9766 186.797 59.4062C186.422 58.8281 186.234 58.1719 186.234 57.4375C186.234 56.7734 186.359 56.1836 186.609 55.668C186.859 55.1523 187.227 54.7188 187.711 54.3672C188.203 54.0078 188.816 53.7383 189.551 53.5586C190.285 53.3711 191.137 53.2773 192.105 53.2773H194.062ZM202.992 42.9883V61H199.617V42.9883H202.992ZM210.984 48.3203L205.477 54.6016L202.523 57.5898L201.293 55.1523L203.637 52.1758L206.93 48.3203H210.984ZM207.48 61L203.73 55.1406L206.062 53.1016L211.371 61H207.48ZM218.039 61.2344C217.055 61.2344 216.172 61.0781 215.391 60.7656C214.609 60.4453 213.945 60.0039 213.398 59.4414C212.859 58.8789 212.445 58.2266 212.156 57.4844C211.867 56.7344 211.723 55.9375 211.723 55.0938V54.625C211.723 53.6641 211.859 52.7852 212.133 51.9883C212.406 51.1914 212.797 50.5 213.305 49.9141C213.82 49.3281 214.445 48.8789 215.18 48.5664C215.914 48.2461 216.742 48.0859 217.664 48.0859C218.562 48.0859 219.359 48.2344 220.055 48.5312C220.75 48.8281 221.332 49.25 221.801 49.7969C222.277 50.3438 222.637 51 222.879 51.7656C223.121 52.5234 223.242 53.3672 223.242 54.2969V55.7031H213.164V53.4531H219.926V53.1953C219.926 52.7266 219.84 52.3086 219.668 51.9414C219.504 51.5664 219.254 51.2695 218.918 51.0508C218.582 50.832 218.152 50.7227 217.629 50.7227C217.184 50.7227 216.801 50.8203 216.48 51.0156C216.16 51.2109 215.898 51.4844 215.695 51.8359C215.5 52.1875 215.352 52.6016 215.25 53.0781C215.156 53.5469 215.109 54.0625 215.109 54.625V55.0938C215.109 55.6016 215.18 56.0703 215.32 56.5C215.469 56.9297 215.676 57.3008 215.941 57.6133C216.215 57.9258 216.543 58.168 216.926 58.3398C217.316 58.5117 217.758 58.5977 218.25 58.5977C218.859 58.5977 219.426 58.4805 219.949 58.2461C220.48 58.0039 220.938 57.6406 221.32 57.1562L222.961 58.9375C222.695 59.3203 222.332 59.6875 221.871 60.0391C221.418 60.3906 220.871 60.6797 220.23 60.9062C219.59 61.125 218.859 61.2344 218.039 61.2344ZM228.539 51.0859V61H225.164V48.3203H228.34L228.539 51.0859ZM232.359 48.2383L232.301 51.3672C232.137 51.3438 231.938 51.3242 231.703 51.3086C231.477 51.2852 231.27 51.2734 231.082 51.2734C230.605 51.2734 230.191 51.3359 229.84 51.4609C229.496 51.5781 229.207 51.7539 228.973 51.9883C228.746 52.2227 228.574 52.5078 228.457 52.8438C228.348 53.1797 228.285 53.5625 228.27 53.9922L227.59 53.7812C227.59 52.9609 227.672 52.207 227.836 51.5195C228 50.8242 228.238 50.2188 228.551 49.7031C228.871 49.1875 229.262 48.7891 229.723 48.5078C230.184 48.2266 230.711 48.0859 231.305 48.0859C231.492 48.0859 231.684 48.1016 231.879 48.1328C232.074 48.1562 232.234 48.1914 232.359 48.2383Z" fill="#888888"/>
<path d="M112.125 84.875V119H103.898V84.875H112.125ZM122.391 84.875V91.2266H93.8672V84.875H122.391ZM135.68 119.469C133.617 119.469 131.773 119.148 130.148 118.508C128.523 117.852 127.148 116.953 126.023 115.812C124.914 114.672 124.062 113.359 123.469 111.875C122.891 110.391 122.602 108.82 122.602 107.164V106.273C122.602 104.414 122.859 102.695 123.375 101.117C123.891 99.5234 124.656 98.1328 125.672 96.9453C126.688 95.7578 127.961 94.8359 129.492 94.1797C131.023 93.5078 132.805 93.1719 134.836 93.1719C136.633 93.1719 138.242 93.4609 139.664 94.0391C141.086 94.6172 142.289 95.4453 143.273 96.5234C144.273 97.6016 145.031 98.9062 145.547 100.438C146.078 101.969 146.344 103.688 146.344 105.594V108.805H125.625V103.859H138.633V103.25C138.648 102.406 138.5 101.688 138.188 101.094C137.891 100.5 137.453 100.047 136.875 99.7344C136.297 99.4219 135.594 99.2656 134.766 99.2656C133.906 99.2656 133.195 99.4531 132.633 99.8281C132.086 100.203 131.656 100.719 131.344 101.375C131.047 102.016 130.836 102.758 130.711 103.602C130.586 104.445 130.523 105.336 130.523 106.273V107.164C130.523 108.102 130.648 108.953 130.898 109.719C131.164 110.484 131.539 111.141 132.023 111.688C132.523 112.219 133.117 112.633 133.805 112.93C134.508 113.227 135.305 113.375 136.195 113.375C137.273 113.375 138.336 113.172 139.383 112.766C140.43 112.359 141.328 111.688 142.078 110.75L145.664 115.016C145.148 115.75 144.414 116.461 143.461 117.148C142.523 117.836 141.398 118.398 140.086 118.836C138.773 119.258 137.305 119.469 135.68 119.469ZM160.266 113.375C161 113.375 161.625 113.242 162.141 112.977C162.672 112.695 163.07 112.305 163.336 111.805C163.617 111.289 163.75 110.672 163.734 109.953H171.164C171.18 111.859 170.711 113.531 169.758 114.969C168.82 116.391 167.539 117.5 165.914 118.297C164.305 119.078 162.484 119.469 160.453 119.469C158.469 119.469 156.734 119.148 155.25 118.508C153.766 117.852 152.523 116.945 151.523 115.789C150.539 114.617 149.797 113.25 149.297 111.688C148.812 110.125 148.57 108.43 148.57 106.602V106.062C148.57 104.234 148.812 102.539 149.297 100.977C149.797 99.3984 150.539 98.0312 151.523 96.875C152.523 95.7031 153.758 94.7969 155.227 94.1562C156.711 93.5 158.438 93.1719 160.406 93.1719C162.516 93.1719 164.375 93.5703 165.984 94.3672C167.609 95.1641 168.883 96.3203 169.805 97.8359C170.727 99.3516 171.18 101.188 171.164 103.344H163.734C163.75 102.578 163.633 101.891 163.383 101.281C163.133 100.672 162.742 100.188 162.211 99.8281C161.695 99.4531 161.031 99.2656 160.219 99.2656C159.406 99.2656 158.75 99.4453 158.25 99.8047C157.75 100.164 157.367 100.664 157.102 101.305C156.852 101.93 156.68 102.648 156.586 103.461C156.508 104.273 156.469 105.141 156.469 106.062V106.602C156.469 107.539 156.508 108.422 156.586 109.25C156.68 110.062 156.859 110.781 157.125 111.406C157.391 112.016 157.773 112.5 158.273 112.859C158.773 113.203 159.438 113.375 160.266 113.375ZM182.273 83V119H174.375V83H182.273ZM181.336 105.453L179.484 105.5C179.484 103.719 179.703 102.078 180.141 100.578C180.578 99.0781 181.203 97.7734 182.016 96.6641C182.828 95.5547 183.805 94.6953 184.945 94.0859C186.086 93.4766 187.352 93.1719 188.742 93.1719C189.992 93.1719 191.133 93.3516 192.164 93.7109C193.211 94.0703 194.109 94.6484 194.859 95.4453C195.625 96.2422 196.211 97.2812 196.617 98.5625C197.039 99.8438 197.25 101.406 197.25 103.25V119H189.305V103.203C189.305 102.172 189.156 101.375 188.859 100.812C188.578 100.234 188.172 99.8359 187.641 99.6172C187.109 99.3828 186.461 99.2656 185.695 99.2656C184.773 99.2656 184.023 99.4219 183.445 99.7344C182.867 100.047 182.422 100.484 182.109 101.047C181.812 101.594 181.609 102.242 181.5 102.992C181.391 103.742 181.336 104.562 181.336 105.453ZM231.539 109.93C231.539 109.398 231.461 108.922 231.305 108.5C231.148 108.062 230.859 107.656 230.438 107.281C230.016 106.906 229.406 106.531 228.609 106.156C227.828 105.766 226.797 105.359 225.516 104.938C224.016 104.438 222.57 103.875 221.18 103.25C219.789 102.609 218.547 101.867 217.453 101.023C216.359 100.164 215.492 99.1641 214.852 98.0234C214.211 96.8672 213.891 95.5234 213.891 93.9922C213.891 92.5234 214.219 91.2031 214.875 90.0312C215.531 88.8438 216.445 87.8359 217.617 87.0078C218.805 86.1641 220.195 85.5234 221.789 85.0859C223.383 84.6328 225.125 84.4062 227.016 84.4062C229.516 84.4062 231.719 84.8438 233.625 85.7188C235.547 86.5781 237.047 87.8047 238.125 89.3984C239.219 90.9766 239.766 92.8438 239.766 95H231.586C231.586 94.1406 231.406 93.3828 231.047 92.7266C230.703 92.0703 230.18 91.5547 229.477 91.1797C228.773 90.8047 227.891 90.6172 226.828 90.6172C225.797 90.6172 224.93 90.7734 224.227 91.0859C223.523 91.3984 222.992 91.8203 222.633 92.3516C222.273 92.8672 222.094 93.4375 222.094 94.0625C222.094 94.5781 222.234 95.0469 222.516 95.4688C222.812 95.875 223.227 96.2578 223.758 96.6172C224.305 96.9766 224.961 97.3203 225.727 97.6484C226.508 97.9766 227.383 98.2969 228.352 98.6094C230.164 99.1875 231.773 99.8359 233.18 100.555C234.602 101.258 235.797 102.062 236.766 102.969C237.75 103.859 238.492 104.875 238.992 106.016C239.508 107.156 239.766 108.445 239.766 109.883C239.766 111.414 239.469 112.773 238.875 113.961C238.281 115.148 237.43 116.156 236.32 116.984C235.211 117.797 233.883 118.414 232.336 118.836C230.789 119.258 229.062 119.469 227.156 119.469C225.406 119.469 223.68 119.25 221.977 118.812C220.289 118.359 218.758 117.672 217.383 116.75C216.008 115.812 214.906 114.617 214.078 113.164C213.266 111.695 212.859 109.953 212.859 107.938H221.109C221.109 108.938 221.242 109.781 221.508 110.469C221.773 111.156 222.164 111.711 222.68 112.133C223.195 112.539 223.828 112.836 224.578 113.023C225.328 113.195 226.188 113.281 227.156 113.281C228.203 113.281 229.047 113.133 229.688 112.836C230.328 112.523 230.797 112.117 231.094 111.617C231.391 111.102 231.539 110.539 231.539 109.93ZM256.992 93.6406V99.125H241.711V93.6406H256.992ZM244.922 87.3359H252.82V110.727C252.82 111.398 252.898 111.922 253.055 112.297C253.211 112.656 253.477 112.914 253.852 113.07C254.242 113.211 254.758 113.281 255.398 113.281C255.852 113.281 256.227 113.273 256.523 113.258C256.82 113.227 257.102 113.188 257.367 113.141V118.789C256.695 119.008 255.992 119.172 255.258 119.281C254.523 119.406 253.742 119.469 252.914 119.469C251.227 119.469 249.781 119.203 248.578 118.672C247.391 118.141 246.484 117.305 245.859 116.164C245.234 115.023 244.922 113.539 244.922 111.711V87.3359ZM273.305 112.625V102.172C273.305 101.453 273.203 100.836 273 100.32C272.797 99.8047 272.477 99.4062 272.039 99.125C271.602 98.8281 271.016 98.6797 270.281 98.6797C269.688 98.6797 269.18 98.7812 268.758 98.9844C268.336 99.1875 268.016 99.4922 267.797 99.8984C267.578 100.305 267.469 100.82 267.469 101.445H259.57C259.57 100.273 259.828 99.1875 260.344 98.1875C260.875 97.1719 261.625 96.2891 262.594 95.5391C263.578 94.7891 264.75 94.2109 266.109 93.8047C267.484 93.3828 269.016 93.1719 270.703 93.1719C272.719 93.1719 274.516 93.5078 276.094 94.1797C277.688 94.8516 278.945 95.8594 279.867 97.2031C280.789 98.5312 281.25 100.203 281.25 102.219V112.602C281.25 114.258 281.344 115.516 281.531 116.375C281.719 117.219 281.984 117.961 282.328 118.602V119H274.406C274.031 118.219 273.75 117.266 273.562 116.141C273.391 115 273.305 113.828 273.305 112.625ZM274.266 103.508L274.312 107.727H270.82C270.086 107.727 269.461 107.828 268.945 108.031C268.445 108.234 268.039 108.516 267.727 108.875C267.43 109.219 267.211 109.609 267.07 110.047C266.945 110.484 266.883 110.945 266.883 111.43C266.883 111.898 266.992 112.32 267.211 112.695C267.445 113.055 267.758 113.336 268.148 113.539C268.539 113.742 268.977 113.844 269.461 113.844C270.336 113.844 271.078 113.68 271.688 113.352C272.312 113.008 272.789 112.594 273.117 112.109C273.445 111.625 273.609 111.172 273.609 110.75L275.344 113.984C275.031 114.609 274.672 115.242 274.266 115.883C273.875 116.523 273.383 117.117 272.789 117.664C272.211 118.195 271.5 118.633 270.656 118.977C269.812 119.305 268.789 119.469 267.586 119.469C266.023 119.469 264.586 119.148 263.273 118.508C261.977 117.867 260.938 116.977 260.156 115.836C259.375 114.68 258.984 113.352 258.984 111.852C258.984 110.539 259.219 109.367 259.688 108.336C260.172 107.305 260.898 106.43 261.867 105.711C262.836 104.992 264.07 104.445 265.57 104.07C267.07 103.695 268.836 103.508 270.867 103.508H274.266ZM296.344 113.375C297.078 113.375 297.703 113.242 298.219 112.977C298.75 112.695 299.148 112.305 299.414 111.805C299.695 111.289 299.828 110.672 299.812 109.953H307.242C307.258 111.859 306.789 113.531 305.836 114.969C304.898 116.391 303.617 117.5 301.992 118.297C300.383 119.078 298.562 119.469 296.531 119.469C294.547 119.469 292.812 119.148 291.328 118.508C289.844 117.852 288.602 116.945 287.602 115.789C286.617 114.617 285.875 113.25 285.375 111.688C284.891 110.125 284.648 108.43 284.648 106.602V106.062C284.648 104.234 284.891 102.539 285.375 100.977C285.875 99.3984 286.617 98.0312 287.602 96.875C288.602 95.7031 289.836 94.7969 291.305 94.1562C292.789 93.5 294.516 93.1719 296.484 93.1719C298.594 93.1719 300.453 93.5703 302.062 94.3672C303.688 95.1641 304.961 96.3203 305.883 97.8359C306.805 99.3516 307.258 101.188 307.242 103.344H299.812C299.828 102.578 299.711 101.891 299.461 101.281C299.211 100.672 298.82 100.188 298.289 99.8281C297.773 99.4531 297.109 99.2656 296.297 99.2656C295.484 99.2656 294.828 99.4453 294.328 99.8047C293.828 100.164 293.445 100.664 293.18 101.305C292.93 101.93 292.758 102.648 292.664 103.461C292.586 104.273 292.547 105.141 292.547 106.062V106.602C292.547 107.539 292.586 108.422 292.664 109.25C292.758 110.062 292.938 110.781 293.203 111.406C293.469 112.016 293.852 112.5 294.352 112.859C294.852 113.203 295.516 113.375 296.344 113.375ZM318.586 82.9766V119H310.688V82.9766H318.586ZM334.805 93.6406L323.789 106.555L318.023 112.32L314.578 107.305L319.383 101.047L325.336 93.6406H334.805ZM326.344 119L319.57 107.445L325.406 103.297L335.391 119H326.344Z" fill="black"/>
<path d="M1134 0H1348C1356.28 0 1363 6.71573 1363 15V148C1363 156.284 1356.28 163 1348 163H1134V0Z" fill="#00204A"/>
<path fill-rule="evenodd" clip-rule="evenodd" d="M1218.75 53C1218.62 53 1218.49 53.0527 1218.4 53.1464C1218.3 53.2402 1218.25 53.3674 1218.25 53.5V109.5C1218.25 109.633 1218.3 109.76 1218.4 109.854C1218.49 109.947 1218.62 110 1218.75 110H1278.25C1278.38 110 1278.51 109.947 1278.6 109.854C1278.7 109.76 1278.75 109.633 1278.75 109.5V64C1278.75 63.8674 1278.7 63.7402 1278.6 63.6464C1278.51 63.5527 1278.38 63.5 1278.25 63.5H1248.5C1247.61 63.5 1246.77 63.1045 1246.2 62.4206L1238.34 53H1218.75ZM1214.15 48.9038C1215.37 47.6848 1217.03 47 1218.75 47H1239.75C1240.64 47 1241.48 47.3955 1242.05 48.0794L1249.91 57.5H1278.25C1279.97 57.5 1281.63 58.1848 1282.85 59.4038C1284.07 60.6228 1284.75 62.2761 1284.75 64V109.5C1284.75 111.224 1284.07 112.877 1282.85 114.096C1281.63 115.315 1279.97 116 1278.25 116H1218.75C1217.03 116 1215.37 115.315 1214.15 114.096C1212.93 112.877 1212.25 111.224 1212.25 109.5V53.5C1212.25 51.7761 1212.93 50.1228 1214.15 48.9038Z" fill="white"/>
<path fill-rule="evenodd" clip-rule="evenodd" d="M1243.97 75.5251C1245.34 76.892 1245.34 79.108 1243.97 80.4749L1237.7 86.75L1243.97 93.0251C1245.34 94.392 1245.34 96.608 1243.97 97.9749C1242.61 99.3417 1240.39 99.3417 1239.03 97.9749L1230.28 89.2249C1228.91 87.858 1228.91 85.642 1230.28 84.2751L1239.03 75.5251C1240.39 74.1583 1242.61 74.1583 1243.97 75.5251Z" fill="white"/>
<path fill-rule="evenodd" clip-rule="evenodd" d="M1252.28 97.9749C1250.91 96.608 1250.91 94.392 1252.28 93.0251L1258.55 86.75L1252.28 80.4749C1250.91 79.108 1250.91 76.892 1252.28 75.5251C1253.64 74.1583 1255.86 74.1583 1257.22 75.5251L1265.97 84.2751C1267.34 85.642 1267.34 87.858 1265.97 89.2249L1257.22 97.9749C1255.86 99.3417 1253.64 99.3417 1252.28 97.9749Z" fill="white"/>
</svg>
