<svg width="1363" height="163" viewBox="0 0 1363 163" fill="none" xmlns="http://www.w3.org/2000/svg">
<path d="M0 15C0 6.71573 6.71573 0 15 0H37V163H15C6.71573 163 0 156.284 0 148V15Z" fill="#424242"/>
<rect width="1097" height="163" transform="translate(37)" fill="#F0F0F0"/>
<path d="M101.906 53.9219L94.3945 51.2383V48.0859L104.602 52.375V54.6367L101.906 53.9219ZM94.3945 56.1719L101.918 53.4297L104.602 52.7852V55.0352L94.3945 59.3242V56.1719ZM117.012 58.293L120.41 43.9375H122.309L122.742 46.3281L119.121 61H117.082L117.012 58.293ZM115.266 43.9375L118.078 58.293L117.844 61H115.57L111.785 43.9375H115.266ZM125.73 58.2344L128.508 43.9375H131.988L128.215 61H125.941L125.73 58.2344ZM123.375 43.9375L126.797 58.3516L126.703 61H124.664L121.02 46.3164L121.488 43.9375H123.375ZM139.148 61.2344C138.164 61.2344 137.281 61.0781 136.5 60.7656C135.719 60.4453 135.055 60.0039 134.508 59.4414C133.969 58.8789 133.555 58.2266 133.266 57.4844C132.977 56.7344 132.832 55.9375 132.832 55.0938V54.625C132.832 53.6641 132.969 52.7852 133.242 51.9883C133.516 51.1914 133.906 50.5 134.414 49.9141C134.93 49.3281 135.555 48.8789 136.289 48.5664C137.023 48.2461 137.852 48.0859 138.773 48.0859C139.672 48.0859 140.469 48.2344 141.164 48.5312C141.859 48.8281 142.441 49.25 142.91 49.7969C143.387 50.3438 143.746 51 143.988 51.7656C144.23 52.5234 144.352 53.3672 144.352 54.2969V55.7031H134.273V53.4531H141.035V53.1953C141.035 52.7266 140.949 52.3086 140.777 51.9414C140.613 51.5664 140.363 51.2695 140.027 51.0508C139.691 50.832 139.262 50.7227 138.738 50.7227C138.293 50.7227 137.91 50.8203 137.59 51.0156C137.27 51.2109 137.008 51.4844 136.805 51.8359C136.609 52.1875 136.461 52.6016 136.359 53.0781C136.266 53.5469 136.219 54.0625 136.219 54.625V55.0938C136.219 55.6016 136.289 56.0703 136.43 56.5C136.578 56.9297 136.785 57.3008 137.051 57.6133C137.324 57.9258 137.652 58.168 138.035 58.3398C138.426 58.5117 138.867 58.5977 139.359 58.5977C139.969 58.5977 140.535 58.4805 141.059 58.2461C141.59 58.0039 142.047 57.6406 142.43 57.1562L144.07 58.9375C143.805 59.3203 143.441 59.6875 142.98 60.0391C142.527 60.3906 141.98 60.6797 141.34 60.9062C140.699 61.125 139.969 61.2344 139.148 61.2344ZM146.273 43H149.648V58.0938L149.309 61H146.273V43ZM157.676 54.5312V54.7773C157.676 55.7227 157.574 56.5898 157.371 57.3789C157.176 58.168 156.871 58.8516 156.457 59.4297C156.043 60 155.527 60.4453 154.91 60.7656C154.301 61.0781 153.582 61.2344 152.754 61.2344C151.98 61.2344 151.309 61.0781 150.738 60.7656C150.176 60.4531 149.703 60.0117 149.32 59.4414C148.938 58.8711 148.629 58.2031 148.395 57.4375C148.16 56.6719 147.984 55.8359 147.867 54.9297V54.3906C147.984 53.4844 148.16 52.6484 148.395 51.8828C148.629 51.1172 148.938 50.4492 149.32 49.8789C149.703 49.3086 150.176 48.8672 150.738 48.5547C151.301 48.2422 151.965 48.0859 152.73 48.0859C153.566 48.0859 154.293 48.2461 154.91 48.5664C155.535 48.8789 156.051 49.3242 156.457 49.9023C156.871 50.4727 157.176 51.1523 157.371 51.9414C157.574 52.7227 157.676 53.5859 157.676 54.5312ZM154.301 54.7773V54.5312C154.301 54.0156 154.262 53.5312 154.184 53.0781C154.113 52.6172 153.988 52.2148 153.809 51.8711C153.629 51.5195 153.383 51.2422 153.07 51.0391C152.766 50.8359 152.371 50.7344 151.887 50.7344C151.426 50.7344 151.035 50.8125 150.715 50.9688C150.395 51.125 150.129 51.3438 149.918 51.625C149.715 51.9062 149.562 52.2422 149.461 52.6328C149.359 53.0156 149.297 53.4375 149.273 53.8984V55.4336C149.297 56.0508 149.398 56.5977 149.578 57.0742C149.766 57.543 150.047 57.9141 150.422 58.1875C150.805 58.4531 151.301 58.5859 151.91 58.5859C152.387 58.5859 152.781 58.4922 153.094 58.3047C153.406 58.1172 153.648 57.8516 153.82 57.5078C154 57.1641 154.125 56.7617 154.195 56.3008C154.266 55.832 154.301 55.3242 154.301 54.7773ZM167.566 43.9375H170.543L174.926 56.4648L179.309 43.9375H182.285L176.121 61H173.73L167.566 43.9375ZM165.961 43.9375H168.926L169.465 56.1484V61H165.961V43.9375ZM180.926 43.9375H183.902V61H180.387V56.1484L180.926 43.9375ZM193.617 58.1406V52.4922C193.617 52.0859 193.551 51.7383 193.418 51.4492C193.285 51.1523 193.078 50.9219 192.797 50.7578C192.523 50.5938 192.168 50.5117 191.73 50.5117C191.355 50.5117 191.031 50.5781 190.758 50.7109C190.484 50.8359 190.273 51.0195 190.125 51.2617C189.977 51.4961 189.902 51.7734 189.902 52.0938H186.527C186.527 51.5547 186.652 51.043 186.902 50.5586C187.152 50.0742 187.516 49.6484 187.992 49.2812C188.469 48.9062 189.035 48.6133 189.691 48.4023C190.355 48.1914 191.098 48.0859 191.918 48.0859C192.902 48.0859 193.777 48.25 194.543 48.5781C195.309 48.9062 195.91 49.3984 196.348 50.0547C196.793 50.7109 197.016 51.5312 197.016 52.5156V57.9414C197.016 58.6367 197.059 59.207 197.145 59.6523C197.23 60.0898 197.355 60.4727 197.52 60.8008V61H194.109C193.945 60.6562 193.82 60.2266 193.734 59.7109C193.656 59.1875 193.617 58.6641 193.617 58.1406ZM194.062 53.2773L194.086 55.1875H192.199C191.754 55.1875 191.367 55.2383 191.039 55.3398C190.711 55.4414 190.441 55.5859 190.23 55.7734C190.02 55.9531 189.863 56.1641 189.762 56.4062C189.668 56.6484 189.621 56.9141 189.621 57.2031C189.621 57.4922 189.688 57.7539 189.82 57.9883C189.953 58.2148 190.145 58.3945 190.395 58.5273C190.645 58.6523 190.938 58.7148 191.273 58.7148C191.781 58.7148 192.223 58.6133 192.598 58.4102C192.973 58.207 193.262 57.957 193.465 57.6602C193.676 57.3633 193.785 57.082 193.793 56.8164L194.684 58.2461C194.559 58.5664 194.387 58.8984 194.168 59.2422C193.957 59.5859 193.688 59.9102 193.359 60.2148C193.031 60.5117 192.637 60.7578 192.176 60.9531C191.715 61.1406 191.168 61.2344 190.535 61.2344C189.73 61.2344 189 61.0742 188.344 60.7539C187.695 60.4258 187.18 59.9766 186.797 59.4062C186.422 58.8281 186.234 58.1719 186.234 57.4375C186.234 56.7734 186.359 56.1836 186.609 55.668C186.859 55.1523 187.227 54.7188 187.711 54.3672C188.203 54.0078 188.816 53.7383 189.551 53.5586C190.285 53.3711 191.137 53.2773 192.105 53.2773H194.062ZM202.992 42.9883V61H199.617V42.9883H202.992ZM210.984 48.3203L205.477 54.6016L202.523 57.5898L201.293 55.1523L203.637 52.1758L206.93 48.3203H210.984ZM207.48 61L203.73 55.1406L206.062 53.1016L211.371 61H207.48ZM218.039 61.2344C217.055 61.2344 216.172 61.0781 215.391 60.7656C214.609 60.4453 213.945 60.0039 213.398 59.4414C212.859 58.8789 212.445 58.2266 212.156 57.4844C211.867 56.7344 211.723 55.9375 211.723 55.0938V54.625C211.723 53.6641 211.859 52.7852 212.133 51.9883C212.406 51.1914 212.797 50.5 213.305 49.9141C213.82 49.3281 214.445 48.8789 215.18 48.5664C215.914 48.2461 216.742 48.0859 217.664 48.0859C218.562 48.0859 219.359 48.2344 220.055 48.5312C220.75 48.8281 221.332 49.25 221.801 49.7969C222.277 50.3438 222.637 51 222.879 51.7656C223.121 52.5234 223.242 53.3672 223.242 54.2969V55.7031H213.164V53.4531H219.926V53.1953C219.926 52.7266 219.84 52.3086 219.668 51.9414C219.504 51.5664 219.254 51.2695 218.918 51.0508C218.582 50.832 218.152 50.7227 217.629 50.7227C217.184 50.7227 216.801 50.8203 216.48 51.0156C216.16 51.2109 215.898 51.4844 215.695 51.8359C215.5 52.1875 215.352 52.6016 215.25 53.0781C215.156 53.5469 215.109 54.0625 215.109 54.625V55.0938C215.109 55.6016 215.18 56.0703 215.32 56.5C215.469 56.9297 215.676 57.3008 215.941 57.6133C216.215 57.9258 216.543 58.168 216.926 58.3398C217.316 58.5117 217.758 58.5977 218.25 58.5977C218.859 58.5977 219.426 58.4805 219.949 58.2461C220.48 58.0039 220.938 57.6406 221.32 57.1562L222.961 58.9375C222.695 59.3203 222.332 59.6875 221.871 60.0391C221.418 60.3906 220.871 60.6797 220.23 60.9062C219.59 61.125 218.859 61.2344 218.039 61.2344ZM228.539 51.0859V61H225.164V48.3203H228.34L228.539 51.0859ZM232.359 48.2383L232.301 51.3672C232.137 51.3438 231.938 51.3242 231.703 51.3086C231.477 51.2852 231.27 51.2734 231.082 51.2734C230.605 51.2734 230.191 51.3359 229.84 51.4609C229.496 51.5781 229.207 51.7539 228.973 51.9883C228.746 52.2227 228.574 52.5078 228.457 52.8438C228.348 53.1797 228.285 53.5625 228.27 53.9922L227.59 53.7812C227.59 52.9609 227.672 52.207 227.836 51.5195C228 50.8242 228.238 50.2188 228.551 49.7031C228.871 49.1875 229.262 48.7891 229.723 48.5078C230.184 48.2266 230.711 48.0859 231.305 48.0859C231.492 48.0859 231.684 48.1016 231.879 48.1328C232.074 48.1562 232.234 48.1914 232.359 48.2383Z" fill="#888888"/>
<path d="M104.344 84.875V119H96.1406V84.875H104.344ZM117.727 99.0078V119H109.828V93.6406H117.234L117.727 99.0078ZM116.766 105.453L114.961 105.5C114.961 103.719 115.172 102.078 115.594 100.578C116.016 99.0781 116.641 97.7734 117.469 96.6641C118.297 95.5547 119.312 94.6953 120.516 94.0859C121.734 93.4766 123.141 93.1719 124.734 93.1719C125.844 93.1719 126.852 93.3438 127.758 93.6875C128.664 94.0156 129.445 94.5391 130.102 95.2578C130.758 95.9609 131.258 96.8828 131.602 98.0234C131.961 99.1484 132.141 100.5 132.141 102.078V119H124.242V103.086C124.242 102.008 124.117 101.195 123.867 100.648C123.633 100.102 123.289 99.7344 122.836 99.5469C122.383 99.3594 121.828 99.2656 121.172 99.2656C120.484 99.2656 119.867 99.4219 119.32 99.7344C118.773 100.047 118.305 100.484 117.914 101.047C117.539 101.594 117.25 102.242 117.047 102.992C116.859 103.742 116.766 104.562 116.766 105.453ZM131.25 105.453L129.047 105.5C129.047 103.719 129.242 102.078 129.633 100.578C130.039 99.0781 130.641 97.7734 131.438 96.6641C132.25 95.5547 133.258 94.6953 134.461 94.0859C135.664 93.4766 137.062 93.1719 138.656 93.1719C139.812 93.1719 140.875 93.3438 141.844 93.6875C142.812 94.0312 143.648 94.5859 144.352 95.3516C145.055 96.1172 145.602 97.1328 145.992 98.3984C146.383 99.6484 146.578 101.195 146.578 103.039V119H138.656V103.039C138.656 101.992 138.531 101.203 138.281 100.672C138.047 100.125 137.703 99.7578 137.25 99.5703C136.797 99.3672 136.258 99.2656 135.633 99.2656C134.883 99.2656 134.234 99.4219 133.688 99.7344C133.141 100.047 132.68 100.484 132.305 101.047C131.945 101.594 131.68 102.242 131.508 102.992C131.336 103.742 131.25 104.562 131.25 105.453ZM159.07 98.5156V128.75H151.172V93.6406H158.531L159.07 98.5156ZM174.633 106.016V106.508C174.633 108.352 174.422 110.062 174 111.641C173.578 113.219 172.953 114.594 172.125 115.766C171.297 116.938 170.266 117.852 169.031 118.508C167.812 119.148 166.398 119.469 164.789 119.469C163.273 119.469 161.969 119.133 160.875 118.461C159.781 117.789 158.867 116.859 158.133 115.672C157.398 114.484 156.805 113.125 156.352 111.594C155.898 110.062 155.539 108.445 155.273 106.742V106.109C155.539 104.281 155.898 102.586 156.352 101.023C156.805 99.4453 157.398 98.0703 158.133 96.8984C158.867 95.7266 159.773 94.8125 160.852 94.1562C161.945 93.5 163.25 93.1719 164.766 93.1719C166.375 93.1719 167.789 93.4766 169.008 94.0859C170.242 94.6953 171.273 95.5703 172.102 96.7109C172.945 97.8359 173.578 99.1875 174 100.766C174.422 102.344 174.633 104.094 174.633 106.016ZM166.734 106.508V106.016C166.734 105.031 166.664 104.133 166.523 103.32C166.383 102.492 166.156 101.773 165.844 101.164C165.547 100.555 165.148 100.086 164.648 99.7578C164.148 99.4297 163.531 99.2656 162.797 99.2656C161.953 99.2656 161.242 99.3984 160.664 99.6641C160.102 99.9141 159.648 100.305 159.305 100.836C158.977 101.352 158.742 102 158.602 102.781C158.477 103.547 158.422 104.445 158.438 105.477V107.398C158.406 108.586 158.523 109.633 158.789 110.539C159.055 111.43 159.516 112.125 160.172 112.625C160.828 113.125 161.719 113.375 162.844 113.375C163.594 113.375 164.219 113.203 164.719 112.859C165.219 112.5 165.617 112.008 165.914 111.383C166.211 110.742 166.422 110.008 166.547 109.18C166.672 108.352 166.734 107.461 166.734 106.508ZM186.492 83V119H178.57V83H186.492ZM203.648 119.469C201.586 119.469 199.742 119.148 198.117 118.508C196.492 117.852 195.117 116.953 193.992 115.812C192.883 114.672 192.031 113.359 191.438 111.875C190.859 110.391 190.57 108.82 190.57 107.164V106.273C190.57 104.414 190.828 102.695 191.344 101.117C191.859 99.5234 192.625 98.1328 193.641 96.9453C194.656 95.7578 195.93 94.8359 197.461 94.1797C198.992 93.5078 200.773 93.1719 202.805 93.1719C204.602 93.1719 206.211 93.4609 207.633 94.0391C209.055 94.6172 210.258 95.4453 211.242 96.5234C212.242 97.6016 213 98.9062 213.516 100.438C214.047 101.969 214.312 103.688 214.312 105.594V108.805H193.594V103.859H206.602V103.25C206.617 102.406 206.469 101.688 206.156 101.094C205.859 100.5 205.422 100.047 204.844 99.7344C204.266 99.4219 203.562 99.2656 202.734 99.2656C201.875 99.2656 201.164 99.4531 200.602 99.8281C200.055 100.203 199.625 100.719 199.312 101.375C199.016 102.016 198.805 102.758 198.68 103.602C198.555 104.445 198.492 105.336 198.492 106.273V107.164C198.492 108.102 198.617 108.953 198.867 109.719C199.133 110.484 199.508 111.141 199.992 111.688C200.492 112.219 201.086 112.633 201.773 112.93C202.477 113.227 203.273 113.375 204.164 113.375C205.242 113.375 206.305 113.172 207.352 112.766C208.398 112.359 209.297 111.688 210.047 110.75L213.633 115.016C213.117 115.75 212.383 116.461 211.43 117.148C210.492 117.836 209.367 118.398 208.055 118.836C206.742 119.258 205.273 119.469 203.648 119.469ZM225.492 99.0078V119H217.594V93.6406H225L225.492 99.0078ZM224.531 105.453L222.727 105.5C222.727 103.719 222.938 102.078 223.359 100.578C223.781 99.0781 224.406 97.7734 225.234 96.6641C226.062 95.5547 227.078 94.6953 228.281 94.0859C229.5 93.4766 230.906 93.1719 232.5 93.1719C233.609 93.1719 234.617 93.3438 235.523 93.6875C236.43 94.0156 237.211 94.5391 237.867 95.2578C238.523 95.9609 239.023 96.8828 239.367 98.0234C239.727 99.1484 239.906 100.5 239.906 102.078V119H232.008V103.086C232.008 102.008 231.883 101.195 231.633 100.648C231.398 100.102 231.055 99.7344 230.602 99.5469C230.148 99.3594 229.594 99.2656 228.938 99.2656C228.25 99.2656 227.633 99.4219 227.086 99.7344C226.539 100.047 226.07 100.484 225.68 101.047C225.305 101.594 225.016 102.242 224.812 102.992C224.625 103.742 224.531 104.562 224.531 105.453ZM239.016 105.453L236.812 105.5C236.812 103.719 237.008 102.078 237.398 100.578C237.805 99.0781 238.406 97.7734 239.203 96.6641C240.016 95.5547 241.023 94.6953 242.227 94.0859C243.43 93.4766 244.828 93.1719 246.422 93.1719C247.578 93.1719 248.641 93.3438 249.609 93.6875C250.578 94.0312 251.414 94.5859 252.117 95.3516C252.82 96.1172 253.367 97.1328 253.758 98.3984C254.148 99.6484 254.344 101.195 254.344 103.039V119H246.422V103.039C246.422 101.992 246.297 101.203 246.047 100.672C245.812 100.125 245.469 99.7578 245.016 99.5703C244.562 99.3672 244.023 99.2656 243.398 99.2656C242.648 99.2656 242 99.4219 241.453 99.7344C240.906 100.047 240.445 100.484 240.07 101.047C239.711 101.594 239.445 102.242 239.273 102.992C239.102 103.742 239.016 104.562 239.016 105.453ZM271.148 119.469C269.086 119.469 267.242 119.148 265.617 118.508C263.992 117.852 262.617 116.953 261.492 115.812C260.383 114.672 259.531 113.359 258.938 111.875C258.359 110.391 258.07 108.82 258.07 107.164V106.273C258.07 104.414 258.328 102.695 258.844 101.117C259.359 99.5234 260.125 98.1328 261.141 96.9453C262.156 95.7578 263.43 94.8359 264.961 94.1797C266.492 93.5078 268.273 93.1719 270.305 93.1719C272.102 93.1719 273.711 93.4609 275.133 94.0391C276.555 94.6172 277.758 95.4453 278.742 96.5234C279.742 97.6016 280.5 98.9062 281.016 100.438C281.547 101.969 281.812 103.688 281.812 105.594V108.805H261.094V103.859H274.102V103.25C274.117 102.406 273.969 101.688 273.656 101.094C273.359 100.5 272.922 100.047 272.344 99.7344C271.766 99.4219 271.062 99.2656 270.234 99.2656C269.375 99.2656 268.664 99.4531 268.102 99.8281C267.555 100.203 267.125 100.719 266.812 101.375C266.516 102.016 266.305 102.758 266.18 103.602C266.055 104.445 265.992 105.336 265.992 106.273V107.164C265.992 108.102 266.117 108.953 266.367 109.719C266.633 110.484 267.008 111.141 267.492 111.688C267.992 112.219 268.586 112.633 269.273 112.93C269.977 113.227 270.773 113.375 271.664 113.375C272.742 113.375 273.805 113.172 274.852 112.766C275.898 112.359 276.797 111.688 277.547 110.75L281.133 115.016C280.617 115.75 279.883 116.461 278.93 117.148C277.992 117.836 276.867 118.398 275.555 118.836C274.242 119.258 272.773 119.469 271.148 119.469ZM292.781 99.0547V119H284.883V93.6406H292.289L292.781 99.0547ZM291.844 105.453L289.992 105.5C289.992 103.562 290.227 101.836 290.695 100.32C291.164 98.7891 291.828 97.4922 292.688 96.4297C293.547 95.3672 294.57 94.5625 295.758 94.0156C296.961 93.4531 298.297 93.1719 299.766 93.1719C300.938 93.1719 302.008 93.3438 302.977 93.6875C303.961 94.0312 304.805 94.5859 305.508 95.3516C306.227 96.1172 306.773 97.1328 307.148 98.3984C307.539 99.6484 307.734 101.195 307.734 103.039V119H299.789V103.016C299.789 102 299.648 101.227 299.367 100.695C299.086 100.148 298.68 99.7734 298.148 99.5703C297.617 99.3672 296.969 99.2656 296.203 99.2656C295.391 99.2656 294.703 99.4219 294.141 99.7344C293.578 100.047 293.125 100.484 292.781 101.047C292.453 101.594 292.211 102.242 292.055 102.992C291.914 103.742 291.844 104.562 291.844 105.453ZM325.477 93.6406V99.125H310.195V93.6406H325.477ZM313.406 87.3359H321.305V110.727C321.305 111.398 321.383 111.922 321.539 112.297C321.695 112.656 321.961 112.914 322.336 113.07C322.727 113.211 323.242 113.281 323.883 113.281C324.336 113.281 324.711 113.273 325.008 113.258C325.305 113.227 325.586 113.188 325.852 113.141V118.789C325.18 119.008 324.477 119.172 323.742 119.281C323.008 119.406 322.227 119.469 321.398 119.469C319.711 119.469 318.266 119.203 317.062 118.672C315.875 118.141 314.969 117.305 314.344 116.164C313.719 115.023 313.406 113.539 313.406 111.711V87.3359ZM341.789 112.625V102.172C341.789 101.453 341.688 100.836 341.484 100.32C341.281 99.8047 340.961 99.4062 340.523 99.125C340.086 98.8281 339.5 98.6797 338.766 98.6797C338.172 98.6797 337.664 98.7812 337.242 98.9844C336.82 99.1875 336.5 99.4922 336.281 99.8984C336.062 100.305 335.953 100.82 335.953 101.445H328.055C328.055 100.273 328.312 99.1875 328.828 98.1875C329.359 97.1719 330.109 96.2891 331.078 95.5391C332.062 94.7891 333.234 94.2109 334.594 93.8047C335.969 93.3828 337.5 93.1719 339.188 93.1719C341.203 93.1719 343 93.5078 344.578 94.1797C346.172 94.8516 347.43 95.8594 348.352 97.2031C349.273 98.5312 349.734 100.203 349.734 102.219V112.602C349.734 114.258 349.828 115.516 350.016 116.375C350.203 117.219 350.469 117.961 350.812 118.602V119H342.891C342.516 118.219 342.234 117.266 342.047 116.141C341.875 115 341.789 113.828 341.789 112.625ZM342.75 103.508L342.797 107.727H339.305C338.57 107.727 337.945 107.828 337.43 108.031C336.93 108.234 336.523 108.516 336.211 108.875C335.914 109.219 335.695 109.609 335.555 110.047C335.43 110.484 335.367 110.945 335.367 111.43C335.367 111.898 335.477 112.32 335.695 112.695C335.93 113.055 336.242 113.336 336.633 113.539C337.023 113.742 337.461 113.844 337.945 113.844C338.82 113.844 339.562 113.68 340.172 113.352C340.797 113.008 341.273 112.594 341.602 112.109C341.93 111.625 342.094 111.172 342.094 110.75L343.828 113.984C343.516 114.609 343.156 115.242 342.75 115.883C342.359 116.523 341.867 117.117 341.273 117.664C340.695 118.195 339.984 118.633 339.141 118.977C338.297 119.305 337.273 119.469 336.07 119.469C334.508 119.469 333.07 119.148 331.758 118.508C330.461 117.867 329.422 116.977 328.641 115.836C327.859 114.68 327.469 113.352 327.469 111.852C327.469 110.539 327.703 109.367 328.172 108.336C328.656 107.305 329.383 106.43 330.352 105.711C331.32 104.992 332.555 104.445 334.055 104.07C335.555 103.695 337.32 103.508 339.352 103.508H342.75ZM367.477 93.6406V99.125H352.195V93.6406H367.477ZM355.406 87.3359H363.305V110.727C363.305 111.398 363.383 111.922 363.539 112.297C363.695 112.656 363.961 112.914 364.336 113.07C364.727 113.211 365.242 113.281 365.883 113.281C366.336 113.281 366.711 113.273 367.008 113.258C367.305 113.227 367.586 113.188 367.852 113.141V118.789C367.18 119.008 366.477 119.172 365.742 119.281C365.008 119.406 364.227 119.469 363.398 119.469C361.711 119.469 360.266 119.203 359.062 118.672C357.875 118.141 356.969 117.305 356.344 116.164C355.719 115.023 355.406 113.539 355.406 111.711V87.3359ZM378.961 93.6406V119H371.039V93.6406H378.961ZM370.57 87.1016C370.57 85.9766 370.977 85.0547 371.789 84.3359C372.602 83.6172 373.656 83.2578 374.953 83.2578C376.25 83.2578 377.305 83.6172 378.117 84.3359C378.93 85.0547 379.336 85.9766 379.336 87.1016C379.336 88.2266 378.93 89.1484 378.117 89.8672C377.305 90.5859 376.25 90.9453 374.953 90.9453C373.656 90.9453 372.602 90.5859 371.789 89.8672C370.977 89.1484 370.57 88.2266 370.57 87.1016ZM382.852 106.578V106.086C382.852 104.227 383.117 102.516 383.648 100.953C384.18 99.375 384.961 98.0078 385.992 96.8516C387.023 95.6953 388.297 94.7969 389.812 94.1562C391.328 93.5 393.078 93.1719 395.062 93.1719C397.062 93.1719 398.82 93.5 400.336 94.1562C401.867 94.7969 403.148 95.6953 404.18 96.8516C405.211 98.0078 405.992 99.375 406.523 100.953C407.055 102.516 407.32 104.227 407.32 106.086V106.578C407.32 108.422 407.055 110.133 406.523 111.711C405.992 113.273 405.211 114.641 404.18 115.812C403.148 116.969 401.875 117.867 400.359 118.508C398.844 119.148 397.094 119.469 395.109 119.469C393.125 119.469 391.367 119.148 389.836 118.508C388.305 117.867 387.023 116.969 385.992 115.812C384.961 114.641 384.18 113.273 383.648 111.711C383.117 110.133 382.852 108.422 382.852 106.578ZM390.75 106.086V106.578C390.75 107.531 390.82 108.422 390.961 109.25C391.102 110.078 391.336 110.805 391.664 111.43C391.992 112.039 392.438 112.516 393 112.859C393.562 113.203 394.266 113.375 395.109 113.375C395.938 113.375 396.625 113.203 397.172 112.859C397.734 112.516 398.18 112.039 398.508 111.43C398.836 110.805 399.07 110.078 399.211 109.25C399.352 108.422 399.422 107.531 399.422 106.578V106.086C399.422 105.164 399.352 104.297 399.211 103.484C399.07 102.656 398.836 101.93 398.508 101.305C398.18 100.664 397.734 100.164 397.172 99.8047C396.609 99.4453 395.906 99.2656 395.062 99.2656C394.234 99.2656 393.539 99.4453 392.977 99.8047C392.43 100.164 391.992 100.664 391.664 101.305C391.336 101.93 391.102 102.656 390.961 103.484C390.82 104.297 390.75 105.164 390.75 106.086ZM418.594 99.0547V119H410.695V93.6406H418.102L418.594 99.0547ZM417.656 105.453L415.805 105.5C415.805 103.562 416.039 101.836 416.508 100.32C416.977 98.7891 417.641 97.4922 418.5 96.4297C419.359 95.3672 420.383 94.5625 421.57 94.0156C422.773 93.4531 424.109 93.1719 425.578 93.1719C426.75 93.1719 427.82 93.3438 428.789 93.6875C429.773 94.0312 430.617 94.5859 431.32 95.3516C432.039 96.1172 432.586 97.1328 432.961 98.3984C433.352 99.6484 433.547 101.195 433.547 103.039V119H425.602V103.016C425.602 102 425.461 101.227 425.18 100.695C424.898 100.148 424.492 99.7734 423.961 99.5703C423.43 99.3672 422.781 99.2656 422.016 99.2656C421.203 99.2656 420.516 99.4219 419.953 99.7344C419.391 100.047 418.938 100.484 418.594 101.047C418.266 101.594 418.023 102.242 417.867 102.992C417.727 103.742 417.656 104.562 417.656 105.453Z" fill="black"/>
<path d="M1134 0H1348C1356.28 0 1363 6.71573 1363 15V148C1363 156.284 1356.28 163 1348 163H1134V0Z" fill="#00204A"/>
<path d="M1281 46.5H1216L1213.5 49V114L1216 116.5H1281L1283.5 114V49L1281 46.5ZM1278.5 111.5H1233.5V101.5H1245C1246.5 104.5 1250 106.5 1253.5 106.5C1259 106.5 1263.5 102 1263.5 96.5C1263.5 91 1259 86.5 1253.5 86.5C1248 86.5 1243.5 91 1243.5 96.5H1228.5V111.5H1218.5V51.5H1228.5V63C1225.5 64.5 1223.5 68 1223.5 71.5C1223.5 77 1228 81.5 1233.5 81.5C1239 81.5 1243.5 77 1243.5 71.5H1253.5C1253.5 77 1258 81.5 1263.5 81.5C1269 81.5 1273.5 77 1273.5 71.5C1273.5 66 1269 61.5 1263.5 61.5C1260 61.5 1256.5 63.5 1255 66.5H1242C1240.5 63.5 1237 61.5 1233.5 61.5V51.5H1278.5V111.5ZM1248.5 96.5C1248.5 93.5 1250.5 91.5 1253.5 91.5C1256.5 91.5 1258.5 93.5 1258.5 96.5C1258.5 99.5 1256.5 101.5 1253.5 101.5C1250.5 101.5 1248.5 99.5 1248.5 96.5ZM1233.5 66.5C1236.5 66.5 1238.5 68.5 1238.5 71.5C1238.5 74.5 1236.5 76.5 1233.5 76.5C1230.5 76.5 1228.5 74.5 1228.5 71.5C1228.5 68.5 1230.5 66.5 1233.5 66.5ZM1263.5 66.5C1266.5 66.5 1268.5 68.5 1268.5 71.5C1268.5 74.5 1266.5 76.5 1263.5 76.5C1260.5 76.5 1258.5 74.5 1258.5 71.5C1258.5 68.5 1260.5 66.5 1263.5 66.5Z" fill="white"/>
</svg>
